<?xml version="1.0" encoding="UTF-8" standalone="no"?>
<!DOCTYPE svg PUBLIC "-//W3C//DTD SVG 1.1//EN"
 "http://www.w3.org/Graphics/SVG/1.1/DTD/svg11.dtd">
<!-- Generated by graphviz version 2.40.1 (20161225.0304)
 -->
<!-- Title: jonah Pages: 1 -->
<svg width="1131pt" height="660pt"
 viewBox="0.00 0.00 1131.43 660.00" xmlns="http://www.w3.org/2000/svg" xmlns:xlink="http://www.w3.org/1999/xlink">
<g id="graph0" class="graph" transform="scale(1 1) rotate(0) translate(4 656)">
<title>jonah</title>
<polygon fill="#ffffff" stroke="transparent" points="-4,4 -4,-656 1127.4289,-656 1127.4289,4 -4,4"/>
<text text-anchor="middle" x="561.7144" y="-6.8" font-family="Times,serif" font-size="14.00" fill="#000000">Jonah App Oversikt</text>
<g id="clust1" class="cluster">
<title>cluster_menu</title>
<polygon fill="none" stroke="#000000" points="8,-285 8,-521 109.0628,-521 109.0628,-285 8,-285"/>
<text text-anchor="middle" x="58.5314" y="-505.8" font-family="Times,serif" font-size="14.00" fill="#000000">TabBarMenu</text>
</g>
<g id="clust4" class="cluster">
<title>cluster_InfoPage</title>
<polygon fill="none" stroke="#000000" points="256.4038,-490 256.4038,-564 326.4038,-564 326.4038,-490 256.4038,-490"/>
<text text-anchor="middle" x="291.4038" y="-548.8" font-family="Times,serif" font-size="14.00" fill="#000000">InfoPage</text>
</g>
<g id="clust3" class="cluster">
<title>cluster_ProgramPage</title>
<polygon fill="none" stroke="#000000" points="246.6694,-408 246.6694,-482 337.1381,-482 337.1381,-408 246.6694,-408"/>
<text text-anchor="middle" x="291.9038" y="-466.8" font-family="Times,serif" font-size="14.00" fill="#000000">ProgramPage</text>
</g>
<g id="clust2" class="cluster">
<title>cluster_NewsPage</title>
<polygon fill="none" stroke="#000000" points="242.3535,-326 242.3535,-400 340.4541,-400 340.4541,-326 242.3535,-326"/>
<text text-anchor="middle" x="291.4038" y="-384.8" font-family="Times,serif" font-size="14.00" fill="#000000">NewsPage</text>
</g>
<g id="clust8" class="cluster">
<title>cluster_SettingsPage</title>
<polygon fill="none" stroke="#000000" points="155.4906,-82 155.4906,-318 427.317,-318 427.317,-82 155.4906,-82"/>
<text text-anchor="middle" x="291.4038" y="-302.8" font-family="Times,serif" font-size="14.00" fill="#000000">SettingsPage?</text>
</g>
<g id="clust5" class="cluster">
<title>cluster_ContentViewer</title>
<polygon fill="none" stroke="#000000" points="473.7447,-30 473.7447,-644 698.0547,-644 698.0547,-30 473.7447,-30"/>
<text text-anchor="middle" x="585.8997" y="-628.8" font-family="Times,serif" font-size="14.00" fill="#000000">ContentViewer</text>
</g>
<g id="clust7" class="cluster">
<title>cluster_FullscreenInteractiveMap</title>
<polygon fill="none" stroke="#000000" points="915.5632,-64 915.5632,-192 1074.8071,-192 1074.8071,-64 915.5632,-64"/>
<text text-anchor="middle" x="995.1851" y="-176.8" font-family="Times,serif" font-size="14.00" fill="#000000">FullscreenInteractiveMap</text>
</g>
<g id="clust6" class="cluster">
<title>cluster_FullscreenImgViewScreen</title>
<polygon fill="none" stroke="#000000" points="873.9414,-516 873.9414,-644 1115.4289,-644 1115.4289,-516 873.9414,-516"/>
<text text-anchor="middle" x="994.6851" y="-628.8" font-family="Times,serif" font-size="14.00" fill="#000000">FullscreenImgViewScreen</text>
</g>
<g id="clust9" class="cluster">
<title>cluster_CategoryListPage</title>
<polygon fill="none" stroke="#000000" points="896.5078,-315 896.5078,-497 1092.8625,-497 1092.8625,-315 896.5078,-315"/>
<text text-anchor="middle" x="994.6851" y="-481.8" font-family="Times,serif" font-size="14.00" fill="#000000">CategoryListPage</text>
</g>
<!-- Info -->
<g id="node1" class="node">
<title>Info</title>
<ellipse fill="none" stroke="#000000" cx="58.5314" cy="-473" rx="27" ry="18"/>
<text text-anchor="middle" x="58.5314" y="-468.8" font-family="Times,serif" font-size="14.00" fill="#000000">Info</text>
</g>
<!-- Post -->
<g id="node5" class="node">
<title>Post</title>
<ellipse fill="none" stroke="#000000" cx="291.4038" cy="-516" rx="27" ry="18"/>
<text text-anchor="middle" x="291.4038" y="-511.8" font-family="Times,serif" font-size="14.00" fill="#000000">Post</text>
</g>
<!-- Info&#45;&gt;Post -->
<g id="edge1" class="edge">
<title>Info&#45;&gt;Post</title>
<path fill="none" stroke="#000000" d="M84.7922,-477.8491C126.483,-485.5473 207.9159,-500.5839 255.1426,-509.3044"/>
<polygon fill="#000000" stroke="#000000" points="246.1762,-507.4023 256.4038,-510.1687 250.1336,-501.6281 246.1762,-507.4023"/>
<text text-anchor="middle" x="132.2767" y="-490.8" font-family="Times,serif" font-size="14.00" fill="#000000">(tap)</text>
</g>
<!-- Program -->
<g id="node2" class="node">
<title>Program</title>
<ellipse fill="none" stroke="#000000" cx="58.5314" cy="-419" rx="40.6248" ry="18"/>
<text text-anchor="middle" x="58.5314" y="-414.8" font-family="Times,serif" font-size="14.00" fill="#000000">Program</text>
</g>
<!-- Event -->
<g id="node6" class="node">
<title>Event</title>
<ellipse fill="none" stroke="#000000" cx="291.4038" cy="-434" rx="30.9706" ry="18"/>
<text text-anchor="middle" x="291.4038" y="-429.8" font-family="Times,serif" font-size="14.00" fill="#000000">Event</text>
</g>
<!-- Program&#45;&gt;Event -->
<g id="edge2" class="edge">
<title>Program&#45;&gt;Event</title>
<path fill="none" stroke="#000000" d="M98.8288,-421.5957C136.9022,-424.0481 194.3169,-427.7463 236.5523,-430.4669"/>
<polygon fill="#000000" stroke="#000000" points="236.4663,-433.9685 246.6706,-431.1186 236.9163,-426.983 236.4663,-433.9685"/>
<text text-anchor="middle" x="132.2767" y="-426.8" font-family="Times,serif" font-size="14.00" fill="#000000">(tap)</text>
</g>
<!-- Nyhet -->
<g id="node3" class="node">
<title>Nyhet</title>
<ellipse fill="none" stroke="#000000" cx="58.5314" cy="-365" rx="31.9393" ry="18"/>
<text text-anchor="middle" x="58.5314" y="-360.8" font-family="Times,serif" font-size="14.00" fill="#000000">Nyhet</text>
</g>
<!-- Message -->
<g id="node7" class="node">
<title>Message</title>
<ellipse fill="none" stroke="#000000" cx="291.4038" cy="-352" rx="41.1007" ry="18"/>
<text text-anchor="middle" x="291.4038" y="-347.8" font-family="Times,serif" font-size="14.00" fill="#000000">Message</text>
</g>
<!-- Nyhet&#45;&gt;Message -->
<g id="edge3" class="edge">
<title>Nyhet&#45;&gt;Message</title>
<path fill="none" stroke="#000000" d="M90.423,-363.2197C129.1028,-361.0604 194.7892,-357.3935 240.4976,-354.8418"/>
<polygon fill="#000000" stroke="#000000" points="233.7869,-360.5175 242.3535,-354.2831 231.7689,-353.8146 233.7869,-360.5175"/>
<text text-anchor="middle" x="132.2767" y="-363.8" font-family="Times,serif" font-size="14.00" fill="#000000">(tap)</text>
</g>
<!-- Settings? -->
<g id="node4" class="node">
<title>Settings?</title>
<ellipse fill="none" stroke="#000000" stroke-dasharray="1,5" cx="58.5314" cy="-311" rx="42.5629" ry="18"/>
<text text-anchor="middle" x="58.5314" y="-306.8" font-family="Times,serif" font-size="14.00" fill="#000000">Settings?</text>
</g>
<!-- PushNotificationToggle -->
<g id="node8" class="node">
<title>PushNotificationToggle</title>
<ellipse fill="none" stroke="#000000" cx="291.4038" cy="-270" rx="93.9804" ry="18"/>
<text text-anchor="middle" x="291.4038" y="-265.8" font-family="Times,serif" font-size="14.00" fill="#000000">PushNotificationToggle</text>
</g>
<!-- Settings?&#45;&gt;PushNotificationToggle -->
<g id="edge4" class="edge">
<title>Settings?&#45;&gt;PushNotificationToggle</title>
<path fill="none" stroke="#000000" stroke-dasharray="1,5" d="M98.035,-304.0449C111.7484,-301.6305 128.0388,-298.7624 145.2581,-295.7307"/>
<polygon fill="#000000" stroke="#000000" points="146.2499,-299.11 155.4915,-293.929 145.0361,-292.2161 146.2499,-299.11"/>
<text text-anchor="middle" x="132.2767" y="-302.8" font-family="Times,serif" font-size="14.00" fill="#000000">(tap)</text>
</g>
<!-- title -->
<g id="node9" class="node">
<title>title</title>
<ellipse fill="none" stroke="#000000" cx="585.8997" cy="-434" rx="27" ry="18"/>
<text text-anchor="middle" x="585.8997" y="-429.8" font-family="Times,serif" font-size="14.00" fill="#000000">title</text>
</g>
<!-- Post&#45;&gt;title -->
<g id="edge7" class="edge">
<title>Post&#45;&gt;title</title>
<path fill="none" stroke="#000000" d="M318.0776,-512.3485C345.9412,-508.022 390.6203,-499.6286 427.317,-486 445.6823,-479.1794 450.489,-472.1394 464.3595,-465.1251"/>
<polygon fill="#000000" stroke="#000000" points="465.9983,-468.228 473.7447,-461 463.1816,-461.8197 465.9983,-468.228"/>
<text text-anchor="middle" x="450.5308" y="-483.8" font-family="Times,serif" font-size="14.00" fill="#000000">(tap)</text>
</g>
<!-- Event&#45;&gt;title -->
<g id="edge6" class="edge">
<title>Event&#45;&gt;title</title>
<path fill="none" stroke="#000000" d="M322.3634,-434C355.9911,-434 411.8349,-434 463.4819,-434"/>
<polygon fill="#000000" stroke="#000000" points="463.7476,-437.5001 473.7476,-434 463.7475,-430.5001 463.7476,-437.5001"/>
<text text-anchor="middle" x="450.5308" y="-436.8" font-family="Times,serif" font-size="14.00" fill="#000000">(tap)</text>
</g>
<!-- Message&#45;&gt;title -->
<g id="edge5" class="edge">
<title>Message&#45;&gt;title</title>
<path fill="none" stroke="#000000" d="M324.8468,-362.7097C359.0149,-373.5147 413.9835,-390.5231 463.8476,-404.2922"/>
<polygon fill="#000000" stroke="#000000" points="463.1755,-407.7369 473.7447,-407 465.0229,-400.985 463.1755,-407.7369"/>
<text text-anchor="middle" x="450.5308" y="-404.8" font-family="Times,serif" font-size="14.00" fill="#000000">(tap)</text>
</g>
<!-- content -->
<g id="node10" class="node">
<title>content</title>
<ellipse fill="none" stroke="#000000" cx="585.8997" cy="-542" rx="36.2732" ry="18"/>
<text text-anchor="middle" x="585.8997" y="-537.8" font-family="Times,serif" font-size="14.00" fill="#000000">content</text>
</g>
<!-- img -->
<g id="node11" class="node">
<title>img</title>
<ellipse fill="none" stroke="#000000" cx="585.8997" cy="-596" rx="27" ry="18"/>
<text text-anchor="middle" x="585.8997" y="-591.8" font-family="Times,serif" font-size="14.00" fill="#000000">img</text>
</g>
<!-- ZoomableImg -->
<g id="node23" class="node">
<title>ZoomableImg</title>
<ellipse fill="none" stroke="#000000" cx="994.6851" cy="-596" rx="60.4115" ry="18"/>
<text text-anchor="middle" x="994.6851" y="-591.8" font-family="Times,serif" font-size="14.00" fill="#000000">ZoomableImg</text>
</g>
<!-- img&#45;&gt;ZoomableImg -->
<g id="edge11" class="edge">
<title>img&#45;&gt;ZoomableImg</title>
<path fill="none" stroke="#000000" d="M613.0378,-596C663.4065,-596 774.3552,-596 863.7125,-596"/>
<polygon fill="#000000" stroke="#000000" points="863.943,-599.5001 873.943,-596 863.943,-592.5001 863.943,-599.5001"/>
<text text-anchor="middle" x="785.9981" y="-598.8" font-family="Times,serif" font-size="14.00" fill="#000000">(tap)</text>
</g>
<!-- showCategories[cat1,cat2] -->
<g id="node12" class="node">
<title>showCategories[cat1,cat2]</title>
<ellipse fill="none" stroke="#000000" cx="585.8997" cy="-488" rx="104.3103" ry="18"/>
<text text-anchor="middle" x="585.8997" y="-483.8" font-family="Times,serif" font-size="14.00" fill="#000000">showCategories[cat1,cat2]</text>
</g>
<!-- list_of_category_posts -->
<g id="node24" class="node">
<title>list_of_category_posts</title>
<ellipse fill="none" stroke="#000000" cx="994.6851" cy="-449" rx="90.355" ry="18"/>
<text text-anchor="middle" x="994.6851" y="-444.8" font-family="Times,serif" font-size="14.00" fill="#000000">list_of_category_posts</text>
</g>
<!-- showCategories[cat1,cat2]&#45;&gt;list_of_category_posts -->
<g id="edge12" class="edge">
<title>showCategories[cat1,cat2]&#45;&gt;list_of_category_posts</title>
<path fill="none" stroke="#000000" d="M677.1303,-479.2962C738.9747,-473.3959 821.0027,-465.5701 886.1969,-459.3503"/>
<polygon fill="#000000" stroke="#000000" points="886.8875,-462.8004 896.5099,-458.3664 886.2227,-455.832 886.8875,-462.8004"/>
<text text-anchor="middle" x="785.9981" y="-477.8" font-family="Times,serif" font-size="14.00" fill="#000000">(tap on one category/group)</text>
</g>
<!-- startTime -->
<g id="node13" class="node">
<title>startTime</title>
<ellipse fill="none" stroke="#000000" cx="585.8997" cy="-380" rx="43.8782" ry="18"/>
<text text-anchor="middle" x="585.8997" y="-375.8" font-family="Times,serif" font-size="14.00" fill="#000000">startTime</text>
</g>
<!-- endTime -->
<g id="node14" class="node">
<title>endTime</title>
<ellipse fill="none" stroke="#000000" cx="585.8997" cy="-326" rx="41.4647" ry="18"/>
<text text-anchor="middle" x="585.8997" y="-321.8" font-family="Times,serif" font-size="14.00" fill="#000000">endTime</text>
</g>
<!-- number -->
<g id="node15" class="node">
<title>number</title>
<ellipse fill="none" stroke="#000000" cx="585.8997" cy="-272" rx="37.2421" ry="18"/>
<text text-anchor="middle" x="585.8997" y="-267.8" font-family="Times,serif" font-size="14.00" fill="#000000">number</text>
</g>
<!-- CallNumber -->
<g id="node20" class="node">
<title>CallNumber</title>
<ellipse fill="none" stroke="#000000" stroke-dasharray="1,5" cx="994.6851" cy="-272" rx="53.6471" ry="18"/>
<text text-anchor="middle" x="994.6851" y="-267.8" font-family="Times,serif" font-size="14.00" fill="#000000">CallNumber</text>
</g>
<!-- number&#45;&gt;CallNumber -->
<g id="edge8" class="edge">
<title>number&#45;&gt;CallNumber</title>
<path fill="none" stroke="#000000" stroke-dasharray="1,5" d="M623.2604,-272C693.0533,-272 843.9696,-272 930.4136,-272"/>
<polygon fill="#000000" stroke="#000000" points="930.6262,-275.5001 940.6262,-272 930.6261,-268.5001 930.6262,-275.5001"/>
<text text-anchor="middle" x="785.9981" y="-274.8" font-family="Times,serif" font-size="14.00" fill="#000000">(tap)</text>
</g>
<!-- url -->
<g id="node16" class="node">
<title>url</title>
<ellipse fill="none" stroke="#000000" cx="585.8997" cy="-218" rx="27" ry="18"/>
<text text-anchor="middle" x="585.8997" y="-213.8" font-family="Times,serif" font-size="14.00" fill="#000000">url</text>
</g>
<!-- OpenBrowser -->
<g id="node21" class="node">
<title>OpenBrowser</title>
<ellipse fill="none" stroke="#000000" stroke-dasharray="1,5" cx="994.6851" cy="-218" rx="59.4512" ry="18"/>
<text text-anchor="middle" x="994.6851" y="-213.8" font-family="Times,serif" font-size="14.00" fill="#000000">OpenBrowser</text>
</g>
<!-- url&#45;&gt;OpenBrowser -->
<g id="edge9" class="edge">
<title>url&#45;&gt;OpenBrowser</title>
<path fill="none" stroke="#000000" stroke-dasharray="1,5" d="M613.0378,-218C675.9452,-218 833.348,-218 925.1641,-218"/>
<polygon fill="#000000" stroke="#000000" points="925.205,-221.5001 935.2049,-218 925.2049,-214.5001 925.205,-221.5001"/>
<text text-anchor="middle" x="785.9981" y="-220.8" font-family="Times,serif" font-size="14.00" fill="#000000">(tap)</text>
</g>
<!-- location -->
<g id="node17" class="node">
<title>location</title>
<ellipse fill="none" stroke="#000000" cx="585.8997" cy="-164" rx="38.6869" ry="18"/>
<text text-anchor="middle" x="585.8997" y="-159.8" font-family="Times,serif" font-size="14.00" fill="#000000">location</text>
</g>
<!-- InteractiveMap -->
<g id="node22" class="node">
<title>InteractiveMap</title>
<ellipse fill="none" stroke="#000000" cx="994.6851" cy="-144" rx="64.2441" ry="18"/>
<text text-anchor="middle" x="994.6851" y="-139.8" font-family="Times,serif" font-size="14.00" fill="#000000">InteractiveMap</text>
</g>
<!-- location&#45;&gt;InteractiveMap -->
<g id="edge10" class="edge">
<title>location&#45;&gt;InteractiveMap</title>
<path fill="none" stroke="#000000" d="M624.3572,-162.1184C688.2039,-158.9947 817.7133,-152.6584 905.3566,-148.3704"/>
<polygon fill="#000000" stroke="#000000" points="905.7465,-151.8556 915.5634,-147.8711 905.4043,-144.864 905.7465,-151.8556"/>
<text text-anchor="middle" x="785.9981" y="-159.8" font-family="Times,serif" font-size="14.00" fill="#000000">(tap)</text>
</g>
<!-- category -->
<g id="node18" class="node">
<title>category</title>
<ellipse fill="none" stroke="#000000" stroke-dasharray="1,5" cx="585.8997" cy="-110" rx="40.5989" ry="18"/>
<text text-anchor="middle" x="585.8997" y="-105.8" font-family="Times,serif" font-size="14.00" fill="#000000">category</text>
</g>
<!-- importance -->
<g id="node19" class="node">
<title>importance</title>
<ellipse fill="none" stroke="#000000" stroke-dasharray="1,5" cx="585.8997" cy="-56" rx="49.7706" ry="18"/>
<text text-anchor="middle" x="585.8997" y="-51.8" font-family="Times,serif" font-size="14.00" fill="#000000">importance</text>
</g>
<!-- list_of_category_posts&#45;&gt;title -->
<g id="edge13" class="edge">
<title>list_of_category_posts&#45;&gt;title</title>
<path fill="none" stroke="#000000" d="M906.0717,-445.5839C891.9786,-445.0485 877.5612,-444.5053 863.9414,-444 812.9739,-442.1089 756.749,-440.0766 708.2743,-438.3412"/>
<polygon fill="#000000" stroke="#000000" points="708.1715,-434.8354 698.0527,-437.9756 707.9212,-441.8309 708.1715,-434.8354"/>
<text text-anchor="middle" x="785.9981" y="-446.8" font-family="Times,serif" font-size="14.00" fill="#000000">(tap on one post)</text>
</g>
<!-- Dismiss_FullscreenImgView -->
<g id="node25" class="node">
<title>Dismiss_FullscreenImgView</title>
<ellipse fill="none" stroke="#000000" stroke-dasharray="1,5" cx="994.6851" cy="-542" rx="112.9879" ry="18"/>
<text text-anchor="middle" x="994.6851" y="-537.8" font-family="Times,serif" font-size="14.00" fill="#000000">Dismiss_FullscreenImgView</text>
</g>
<!-- Dismiss_Map -->
<g id="node26" class="node">
<title>Dismiss_Map</title>
<ellipse fill="none" stroke="#000000" stroke-dasharray="1,5" cx="994.6851" cy="-90" rx="59.4859" ry="18"/>
<text text-anchor="middle" x="994.6851" y="-85.8" font-family="Times,serif" font-size="14.00" fill="#000000">Dismiss_Map</text>
</g>
<!-- ManagePushSubscriptions -->
<g id="node27" class="node">
<title>ManagePushSubscriptions</title>
<ellipse fill="none" stroke="#000000" cx="291.4038" cy="-216" rx="103.8869" ry="18"/>
<text text-anchor="middle" x="291.4038" y="-211.8" font-family="Times,serif" font-size="14.00" fill="#000000">ManagePushSubscriptions</text>
</g>
<!-- DarkMode (aka. AwesomeMode) -->
<g id="node28" class="node">
<title>DarkMode (aka. AwesomeMode)</title>
<ellipse fill="none" stroke="#000000" cx="291.4038" cy="-162" rx="127.8264" ry="18"/>
<text text-anchor="middle" x="291.4038" y="-157.8" font-family="Times,serif" font-size="14.00" fill="#000000">DarkMode (aka. AwesomeMode)</text>
</g>
<!-- ChangeFestival? -->
<g id="node29" class="node">
<title>ChangeFestival?</title>
<ellipse fill="none" stroke="#000000" cx="291.4038" cy="-108" rx="69.0978" ry="18"/>
<text text-anchor="middle" x="291.4038" y="-103.8" font-family="Times,serif" font-size="14.00" fill="#000000">ChangeFestival?</text>
</g>
<!-- category_title -->
<g id="node30" class="node">
<title>category_title</title>
<ellipse fill="none" stroke="#000000" cx="994.6851" cy="-395" rx="58.9494" ry="18"/>
<text text-anchor="middle" x="994.6851" y="-390.8" font-family="Times,serif" font-size="14.00" fill="#000000">category_title</text>
</g>
<!-- category_content -->
<g id="node31" class="node">
<title>category_content</title>
<ellipse fill="none" stroke="#000000" cx="994.6851" cy="-341" rx="71.0013" ry="18"/>
<text text-anchor="middle" x="994.6851" y="-336.8" font-family="Times,serif" font-size="14.00" fill="#000000">category_content</text>
</g>
</g>
</svg>
